<svg height="600" viewBox="0 0 800 600" width="800" xmlns="http://www.w3.org/2000/svg" class="alert">
	<!-- Brace -->
	<g fill="#B21F24" class="alert-red">
		<path d="M400.149 223.104h-134.976l-85.702-99.013s6.377-11.668 28.022-31.758c19.729-18.312 63.985-53.71 63.985-53.71l-.701 168.56h129.372v15.921zM400.009 223.104h134.976l85.701-99.013s-6.376-11.668-28.021-31.758c-19.729-18.312-63.984-53.71-63.984-53.71l.7 168.56h-129.372v15.921z"/>
	</g>

	<!-- Side block -->
	<path d="M101.528 356.311h126.446v-109.432h-126.446s-4.958 40.981-4.958 54.716c0 13.734 4.958 54.716 4.958 54.716z" fill="#B21F24" class="alert-red"/>

	<!-- Side block-->
	<path d="M698.934 356.311h-126.447v-109.432h126.446s4.959 40.981 4.959 54.716c.001 13.734-4.958 54.716-4.958 54.716z" fill="#B21F24" class="alert-red"/>

	<!-- Top Pulse -->
	<g>
		<path d="M276.194 43.499h247.745v12.525h-247.745zM276.194 59.877h247.745v12.525h-247.745z" class="alert-red-pulse-1"/>
		<path d="M276.194 76.255h247.745v12.525h-247.745z" fill="#433532" class="alert-red-pulse-2"/>
		<path d="M276.194 92.634h247.745v12.525h-247.745z" fill="#784C3F" class="alert-red-pulse-3"/>
		<path d="M276.194 109.012h247.746v12.525h-247.746z" fill="#954432" class="alert-red-pulse-4"/>
		<path d="M276.194 125.391h247.745v12.525h-247.745z" fill="#B21F24" class="alert-red-pulse-5"/>
		<path d="M276.194 141.769h247.745v12.525h-247.745z" fill="#BF2328" class="alert-red-pulse-6"/>
		<path d="M276.194 158.147h247.746v12.525h-247.746z" fill="#EF363A" class="alert-red-pulse-7"/>
		<path d="M276.194 174.526h247.745v12.525h-247.745z" fill="#F26757" class="alert-red-pulse-8"/>
		<path d="M276.194 190.904h247.745v12.525h-247.745z" fill="#F58C77" class="alert-red-pulse-9"/>
	</g>

	<!-- Text and such -->
	<path d="M201.678 244.157h390.91v86.777h-390.91z" fill="none"/>
	<text fill="#B21F24" transform="translate(250 300)" class="alert-red" id="alert-message">ALERT</text>
	<path d="M219.169 330.934h361.983v48.761h-361.983z" fill="none"/>
	<text fill="#B21F24" transform="translate(260 350)" class="alert-red" id="alert-colour">CONDITION RED</text>

	<!-- Brace -->
	<g fill="#B21F24" class="alert-red">
		<path d="M400.231 381.06h-134.976l-85.702 99.013s6.377 11.668 28.022 31.759c19.729 18.312 63.985 53.71 63.985 53.71l-.701-168.56h129.372v-15.922zM400.091 381.06h134.975l85.701 99.013s-6.375 11.668-28.021 31.759c-19.729 18.312-63.984 53.71-63.984 53.71l.701-168.56h-129.372v-15.922z"/>
	</g>

	<!-- Bottom Pulse -->
	<g>
		<path d="M276.127 548.992h247.745v12.525h-247.745zM276.127 532.613h247.745v12.525h-247.745z" class="alert-red-pulse-1"/>
		<path d="M276.127 516.234h247.745v12.525h-247.745z" fill="#433532" class="alert-red-pulse-2"/>
		<path d="M276.127 499.856h247.745v12.525h-247.745z" fill="#784C3F" class="alert-red-pulse-3"/>
		<path d="M276.127 483.479h247.746v12.525h-247.746z" fill="#954432" class="alert-red-pulse-4"/>
		<path d="M276.127 467.1h247.745v12.525h-247.745z" fill="#B21F24" class="alert-red-pulse-5"/>
		<path d="M276.127 450.721h247.745v12.525h-247.745z" fill="#BF2328" class="alert-red-pulse-6"/>
		<path d="M276.127 434.343h247.746v12.525h-247.746z" fill="#EF363A" class="alert-red-pulse-7"/>
		<path d="M276.127 417.965h247.745v12.525h-247.745z" fill="#F26757" class="alert-red-pulse-8"/>
		<path d="M276.127 401.586h247.745v12.525h-247.745z" fill="#F58C77" class="alert-red-pulse-9"/>
	</g>
</svg>